<svg xmlns="http://www.w3.org/2000/svg" width="1200" height="630" viewBox="0 0 1200 630" role="img" aria-labelledby="title desc"><title id="title">DesignOps Orchestrator</title><desc id="desc">A modular Gulp pipeline connecting design tokens, content, media, motion, audits, and front-end releases.</desc><defs><linearGradient id="bg" x1="0" y1="0" x2="1" y2="1"><stop stop-color="#0f172a"/><stop offset="1" stop-color="#312e81"/></linearGradient></defs><rect width="1200" height="630" rx="34" fill="url(#bg)"/><circle cx="1090" cy="80" r="180" fill="#ec4899" opacity=".14"/><circle cx="100" cy="570" r="150" fill="#38bdf8" opacity=".12"/><g font-family="Arial, sans-serif"><g transform="translate(64 64)"><rect width="70" height="70" rx="18" fill="#ec4899"/><path d="M20 24h30v8H20zm0 15h21v8H20zm0 15h26v8H20z" fill="#fff"/><text x="92" y="32" font-size="35" font-weight="800" fill="#fff">DesignOps Orchestrator</text><text x="92" y="58" font-size="16" fill="#cbd5e1">Design-to-code workflow automation with Gulp 5</text></g><g transform="translate(64 182)"><text font-size="52" font-weight="800" fill="#fff">Turn design inputs into</text><text y="58" font-size="52" font-weight="800" fill="#f9a8d4">repeatable production outputs.</text><text y="112" font-size="21" fill="#cbd5e1">Tokens, content, images, motion, scripts, audits, and releases</text><text y="143" font-size="21" fill="#cbd5e1">coordinated through one modular front-end pipeline.</text></g><g transform="translate(64 390)"><rect width="160" height="54" rx="14" fill="#1e293b" stroke="#64748b"/><text x="80" y="34" text-anchor="middle" font-size="16" font-weight="700" fill="#e2e8f0">Design tokens</text><path d="M168 27h42" stroke="#94a3b8" stroke-width="3"/><g transform="translate(218)"><rect width="160" height="54" rx="14" fill="#1e293b" stroke="#64748b"/><text x="80" y="34" text-anchor="middle" font-size="16" font-weight="700" fill="#e2e8f0">Gulp pipeline</text></g><path d="M386 27h42" stroke="#94a3b8" stroke-width="3"/><g transform="translate(436)"><rect width="160" height="54" rx="14" fill="#1e293b" stroke="#64748b"/><text x="80" y="34" text-anchor="middle" font-size="16" font-weight="700" fill="#e2e8f0">Optimized build</text></g><g transform="translate(0 78)"><rect width="178" height="44" rx="22" fill="#ec4899"/><text x="89" y="28" text-anchor="middle" font-size="14" font-weight="700" fill="#fff">Accessibility audits</text><rect x="192" width="170" height="44" rx="22" fill="#2563eb"/><text x="277" y="28" text-anchor="middle" font-size="14" font-weight="700" fill="#fff">Image optimization</text><rect x="376" width="150" height="44" rx="22" fill="#059669"/><text x="451" y="28" text-anchor="middle" font-size="14" font-weight="700" fill="#fff">Motion assets</text><rect x="540" width="160" height="44" rx="22" fill="#7c3aed"/><text x="620" y="28" text-anchor="middle" font-size="14" font-weight="700" fill="#fff">Release tooling</text></g></g><g transform="translate(790 168)"><rect width="350" height="366" rx="24" fill="#111827" stroke="#475569"/><text x="24" y="38" font-size="13" font-weight="700" fill="#94a3b8">WORKFLOW STATUS</text><g transform="translate(24 62)"><rect width="302" height="55" rx="13" fill="#1f2937"/><circle cx="26" cy="27" r="9" fill="#22c55e"/><text x="48" y="23" font-size="14" fill="#cbd5e1">Tokens transformed</text><text x="48" y="42" font-size="12" fill="#64748b">JSON → SCSS variables</text><rect y="68" width="302" height="55" rx="13" fill="#1f2937"/><circle cx="26" cy="95" r="9" fill="#22c55e"/><text x="48" y="91" font-size="14" fill="#cbd5e1">Assets optimized</text><text x="48" y="110" font-size="12" fill="#64748b">AVIF, WebP, SVG sprite</text><rect y="136" width="302" height="55" rx="13" fill="#1f2937"/><circle cx="26" cy="163" r="9" fill="#22c55e"/><text x="48" y="159" font-size="14" fill="#cbd5e1">Quality checks passed</text><text x="48" y="178" font-size="12" fill="#64748b">Lint, accessibility, performance</text><rect y="204" width="302" height="55" rx="13" fill="#1f2937"/><circle cx="26" cy="231" r="9" fill="#38bdf8"/><text x="48" y="227" font-size="14" fill="#cbd5e1">Production package ready</text><text x="48" y="246" font-size="12" fill="#64748b">Versioned release output</text></g></g></g></svg>